<svg width="59" height="59" viewBox="0 0 59 59" fill="none" xmlns="http://www.w3.org/2000/svg">
<g filter="url(#filter0_d_153_66)">
<path d="M15 11L29.5 5L44 11L50 25.5L44 40L29.5 46L15 40L8.5 25.5L15 11Z" fill="#FFD600"/>
<path d="M25.9179 34L27.8 35.8214C28.2857 36.3071 28.8524 36.55 29.5 36.55C30.1476 36.55 30.7143 36.3071 31.2 35.8214L33.0821 34H35.5714C36.2595 34 36.8367 33.7669 37.303 33.3006C37.7693 32.8343 38.0016 32.2579 38 31.5714V29.0821L39.8214 27.2C40.3071 26.7143 40.55 26.1476 40.55 25.5C40.55 24.8524 40.3071 24.2857 39.8214 23.8L38 21.9179V19.4286C38 18.7405 37.7669 18.1633 37.3006 17.697C36.8343 17.2307 36.2579 16.9984 35.5714 17H33.0821L30.775 14.7536C30.4107 14.3893 29.9857 14.2071 29.5 14.2071C29.0143 14.2071 28.5893 14.3893 28.225 14.7536L25.9179 17H23.4286C22.7405 17 22.1633 17.2331 21.697 17.6994C21.2307 18.1657 20.9984 18.7421 21 19.4286V21.9179L19.1786 23.8C18.6929 24.2857 18.45 24.8524 18.45 25.5C18.45 26.1476 18.6929 26.7143 19.1786 27.2L21 29.0821V31.5714C21 32.2595 21.2331 32.8367 21.6994 33.303C22.1657 33.7693 22.7421 34.0016 23.4286 34H25.9179ZM21.3643 44.9286H14.9286C13.5929 44.9286 12.449 44.4526 11.497 43.5006C10.545 42.5486 10.0698 41.4055 10.0714 40.0714V33.6357L5.39643 28.9C4.95119 28.4143 4.60714 27.8784 4.36429 27.2923C4.12143 26.7062 4 26.1088 4 25.5C4 24.8929 4.12143 24.2954 4.36429 23.7077C4.60714 23.12 4.95119 22.5841 5.39643 22.1L10.0714 17.3643V10.9286C10.0714 9.59286 10.5474 8.449 11.4994 7.497C12.4514 6.545 13.5945 6.06981 14.9286 6.07143H21.3643L26.1 1.39643C26.5857 0.951191 27.1224 0.607143 27.7101 0.364286C28.2979 0.121429 28.8945 0 29.5 0C30.1071 0 30.7046 0.121429 31.2923 0.364286C31.88 0.607143 32.4159 0.951191 32.9 1.39643L37.6357 6.07143H44.0714C45.4071 6.07143 46.551 6.54743 47.503 7.49943C48.455 8.45143 48.9302 9.59448 48.9286 10.9286V17.3643L53.6036 22.1C54.0488 22.5857 54.3929 23.1224 54.6357 23.7101C54.8786 24.2979 55 24.8945 55 25.5C55 26.1071 54.8786 26.7046 54.6357 27.2923C54.3929 27.88 54.0488 28.4159 53.6036 28.9L48.9286 33.6357V40.0714C48.9286 41.4071 48.4526 42.551 47.5006 43.503C46.5486 44.455 45.4055 44.9302 44.0714 44.9286H37.6357L32.9 49.6036C32.4143 50.0488 31.8784 50.3929 31.2923 50.6357C30.7062 50.8786 30.1088 51 29.5 51C28.8929 51 28.2962 50.8786 27.7101 50.6357C27.124 50.3929 26.5873 50.0488 26.1 49.6036L21.3643 44.9286ZM23.4286 40.0714L29.5 46.1429L35.5714 40.0714H44.0714V31.5714L50.1429 25.5L44.0714 19.4286V10.9286H35.5714L29.5 4.85714L23.4286 10.9286H14.9286V19.4286L8.85714 25.5L14.9286 31.5714V40.0714H23.4286Z" fill="#FF3E3E"/>
</g>
<defs>
<filter id="filter0_d_153_66" x="0" y="0" width="59" height="59" filterUnits="userSpaceOnUse" color-interpolation-filters="sRGB">
<feFlood flood-opacity="0" result="BackgroundImageFix"/>
<feColorMatrix in="SourceAlpha" type="matrix" values="0 0 0 0 0 0 0 0 0 0 0 0 0 0 0 0 0 0 127 0" result="hardAlpha"/>
<feOffset dy="4"/>
<feGaussianBlur stdDeviation="2"/>
<feComposite in2="hardAlpha" operator="out"/>
<feColorMatrix type="matrix" values="0 0 0 0 0 0 0 0 0 0 0 0 0 0 0 0 0 0 0.25 0"/>
<feBlend mode="normal" in2="BackgroundImageFix" result="effect1_dropShadow_153_66"/>
<feBlend mode="normal" in="SourceGraphic" in2="effect1_dropShadow_153_66" result="shape"/>
</filter>
</defs>
</svg>
