<svg width="48" height="59" viewBox="0 0 48 59" fill="none" xmlns="http://www.w3.org/2000/svg">
<g filter="url(#filter0_d_146_131)">
<path d="M40.1998 23.234C39.5428 22.384 38.7429 21.6473 38.0002 20.9106C36.0863 19.2105 33.9153 17.9922 32.087 16.2071C27.8307 12.0703 26.888 5.24182 29.6018 0C26.888 0.651685 24.517 2.12506 22.4888 3.74011C15.0901 9.63361 12.1764 20.0322 15.6615 28.9575C15.7757 29.2408 15.89 29.5242 15.89 29.8925C15.89 30.5159 15.4615 31.0826 14.8902 31.3092C14.2331 31.5926 13.5476 31.4226 13.0048 30.9692C12.8417 30.8355 12.7059 30.672 12.6049 30.4875C9.37689 26.4358 8.8627 20.6273 11.0337 15.9805C6.26318 19.8339 3.66365 26.3508 4.03501 32.4993C4.20641 33.916 4.37781 35.3327 4.86343 36.7494C5.26336 38.4494 6.03465 40.1495 6.89163 41.6512C9.97678 46.553 15.3187 50.0664 21.0605 50.7748C27.1736 51.5398 33.7153 50.4348 38.4002 46.2413C43.6278 41.5378 45.456 34.001 42.7708 27.5408L42.3994 26.8041C41.7995 25.5007 40.1998 23.234 40.1998 23.234ZM31.1729 41.0845C30.373 41.7645 29.059 42.5012 28.0306 42.7846C24.8312 43.9179 21.6318 42.3312 19.7464 40.4612C23.1458 39.6678 25.174 37.1744 25.7739 34.6527C26.2595 32.3859 25.3454 30.5159 24.974 28.3341C24.6312 26.2374 24.6884 24.4524 25.4597 22.4973C26.0024 23.574 26.5737 24.6507 27.2593 25.5007C29.4589 28.3341 32.9154 29.5808 33.6582 33.4343C33.7724 33.831 33.8296 34.2276 33.8296 34.6527C33.9153 36.9761 32.8869 39.5261 31.1729 41.0845Z" fill="#FF8A1E"/>
</g>
<defs>
<filter id="filter0_d_146_131" x="0" y="0" width="48" height="59" filterUnits="userSpaceOnUse" color-interpolation-filters="sRGB">
<feFlood flood-opacity="0" result="BackgroundImageFix"/>
<feColorMatrix in="SourceAlpha" type="matrix" values="0 0 0 0 0 0 0 0 0 0 0 0 0 0 0 0 0 0 127 0" result="hardAlpha"/>
<feOffset dy="4"/>
<feGaussianBlur stdDeviation="2"/>
<feComposite in2="hardAlpha" operator="out"/>
<feColorMatrix type="matrix" values="0 0 0 0 0 0 0 0 0 0 0 0 0 0 0 0 0 0 0.25 0"/>
<feBlend mode="normal" in2="BackgroundImageFix" result="effect1_dropShadow_146_131"/>
<feBlend mode="normal" in="SourceGraphic" in2="effect1_dropShadow_146_131" result="shape"/>
</filter>
</defs>
</svg>
