<svg width="83" height="59" viewBox="0 0 83 59" fill="none" xmlns="http://www.w3.org/2000/svg">
<g filter="url(#filter0_d_147_220)">
<mask id="path-1-inside-1_147_220" fill="white">
<path fill-rule="evenodd" clip-rule="evenodd" d="M63.7057 50.9999H19.5601C19.5401 51 19.5201 51 19.5 51C19.4799 51 19.4599 51 19.4399 50.9999H19.2991V50.9988C10.8313 50.8982 4 44.4454 4 36.5C4 29.2114 9.74859 23.1788 17.2357 22.1536C16.7364 20.5281 16.467 18.7966 16.467 17C16.467 7.61114 23.8244 0 32.9003 0C39.2927 0 44.8327 3.77581 47.5498 9.28913C49.3548 8.07506 51.5282 7.36657 53.8671 7.36657C60.1263 7.36657 65.2004 12.4407 65.2004 18.6999C65.2004 19.8945 65.0156 21.0459 64.6729 22.1271C72.2393 22.5865 78.2336 28.8683 78.2336 36.5501C78.2336 44.4364 71.916 50.8472 64.0656 50.9974V50.9999H63.8616C63.8357 51 63.8097 51.0001 63.7836 51.0001C63.7576 51.0001 63.7316 51 63.7057 50.9999Z"/>
</mask>
<path fill-rule="evenodd" clip-rule="evenodd" d="M63.7057 50.9999H19.5601C19.5401 51 19.5201 51 19.5 51C19.4799 51 19.4599 51 19.4399 50.9999H19.2991V50.9988C10.8313 50.8982 4 44.4454 4 36.5C4 29.2114 9.74859 23.1788 17.2357 22.1536C16.7364 20.5281 16.467 18.7966 16.467 17C16.467 7.61114 23.8244 0 32.9003 0C39.2927 0 44.8327 3.77581 47.5498 9.28913C49.3548 8.07506 51.5282 7.36657 53.8671 7.36657C60.1263 7.36657 65.2004 12.4407 65.2004 18.6999C65.2004 19.8945 65.0156 21.0459 64.6729 22.1271C72.2393 22.5865 78.2336 28.8683 78.2336 36.5501C78.2336 44.4364 71.916 50.8472 64.0656 50.9974V50.9999H63.8616C63.8357 51 63.8097 51.0001 63.7836 51.0001C63.7576 51.0001 63.7316 51 63.7057 50.9999Z" fill="#D9D9D9"/>
<path d="M63.7057 50.9999L63.7261 47.1427L63.7159 47.1427H63.7057V50.9999ZM19.5601 50.9999L19.5601 47.1427L19.5462 47.1427L19.5601 50.9999ZM19.4399 50.9999L19.4538 47.1427H19.4399V50.9999ZM19.2991 50.9999H15.4419V54.8571H19.2991V50.9999ZM19.2991 50.9988H23.1563V47.1872L19.3449 47.1419L19.2991 50.9988ZM17.2357 22.1536L17.759 25.9752L22.2555 25.3595L20.9229 21.021L17.2357 22.1536ZM47.5498 9.28913L44.0899 10.9942L46.0408 14.9527L49.7026 12.4897L47.5498 9.28913ZM64.6729 22.1271L60.9959 20.9619L59.5017 25.6775L64.4392 25.9772L64.6729 22.1271ZM64.0656 50.9974L63.9918 47.1409L60.2084 47.2133V50.9974H64.0656ZM64.0656 50.9999V54.8571H67.9228V50.9999H64.0656ZM63.8616 50.9999V47.1427H63.8514L63.8412 47.1427L63.8616 50.9999ZM63.7057 47.1427H19.5601V54.8571H63.7057V47.1427ZM19.5462 47.1427C19.531 47.1428 19.5157 47.1428 19.5 47.1428V54.8572C19.5245 54.8572 19.5492 54.8572 19.5741 54.8571L19.5462 47.1427ZM19.5 47.1428C19.4843 47.1428 19.469 47.1428 19.4538 47.1427L19.4259 54.8571C19.4508 54.8572 19.4755 54.8572 19.5 54.8572V47.1428ZM19.4399 47.1427H19.2991V54.8571H19.4399V47.1427ZM23.1563 50.9999V50.9988H15.4419V50.9999H23.1563ZM19.3449 47.1419C12.7446 47.0634 7.85722 42.0963 7.85722 36.5H0.142782C0.142782 46.7944 8.9179 54.7329 19.2532 54.8558L19.3449 47.1419ZM7.85722 36.5C7.85722 31.3579 11.9574 26.7696 17.759 25.9752L16.7124 18.3321C7.53975 19.588 0.142782 27.0649 0.142782 36.5H7.85722ZM20.9229 21.021C20.5353 19.7593 20.3242 18.4093 20.3242 17H12.6098C12.6098 19.1838 12.9375 21.2969 13.5485 23.2862L20.9229 21.021ZM20.3242 17C20.3242 9.61712 26.0769 3.85722 32.9003 3.85722V-3.85722C21.5719 -3.85722 12.6098 5.60516 12.6098 17H20.3242ZM32.9003 3.85722C37.7169 3.85722 41.9736 6.7 44.0899 10.9942L51.0097 7.584C47.6918 0.851614 40.8685 -3.85722 32.9003 -3.85722V3.85722ZM49.7026 12.4897C50.8912 11.6902 52.3188 11.2238 53.8671 11.2238V3.50935C50.7376 3.50935 47.8185 4.45987 45.3971 6.08853L49.7026 12.4897ZM53.8671 11.2238C57.996 11.2238 61.3432 14.5709 61.3432 18.6999H69.0576C69.0576 10.3104 62.2566 3.50935 53.8671 3.50935V11.2238ZM61.3432 18.6999C61.3432 19.4945 61.2205 20.2532 60.9959 20.9619L68.35 23.2923C68.8106 21.8386 69.0576 20.2944 69.0576 18.6999H61.3432ZM64.4392 25.9772C69.9822 26.3138 74.3764 30.9203 74.3764 36.5501H82.0908C82.0908 26.8163 74.4963 18.8592 64.9067 18.277L64.4392 25.9772ZM74.3764 36.5501C74.3764 42.3309 69.7451 47.0308 63.9918 47.1409L64.1394 54.8539C74.0868 54.6635 82.0908 46.542 82.0908 36.5501H74.3764ZM60.2084 50.9974V50.9999H67.9228V50.9974H60.2084ZM64.0656 47.1427H63.8616V54.8571H64.0656V47.1427ZM63.8412 47.1427C63.8221 47.1428 63.8029 47.1429 63.7836 47.1429V54.8573C63.8164 54.8573 63.8492 54.8572 63.882 54.8571L63.8412 47.1427ZM63.7836 47.1429C63.7644 47.1429 63.7452 47.1428 63.7261 47.1427L63.6853 54.8571C63.7181 54.8572 63.7508 54.8573 63.7836 54.8573V47.1429Z" fill="#5F5F5F" mask="url(#path-1-inside-1_147_220)"/>
</g>
<defs>
<filter id="filter0_d_147_220" x="0" y="0" width="82.2334" height="59" filterUnits="userSpaceOnUse" color-interpolation-filters="sRGB">
<feFlood flood-opacity="0" result="BackgroundImageFix"/>
<feColorMatrix in="SourceAlpha" type="matrix" values="0 0 0 0 0 0 0 0 0 0 0 0 0 0 0 0 0 0 127 0" result="hardAlpha"/>
<feOffset dy="4"/>
<feGaussianBlur stdDeviation="2"/>
<feComposite in2="hardAlpha" operator="out"/>
<feColorMatrix type="matrix" values="0 0 0 0 0 0 0 0 0 0 0 0 0 0 0 0 0 0 0.25 0"/>
<feBlend mode="normal" in2="BackgroundImageFix" result="effect1_dropShadow_147_220"/>
<feBlend mode="normal" in="SourceGraphic" in2="effect1_dropShadow_147_220" result="shape"/>
</filter>
</defs>
</svg>
